<svg width="256" height="256" viewBox="0 0 256 256" fill="none" xmlns="http://www.w3.org/2000/svg">
<g clip-path="url(#clip0_230_1773)">
<rect width="256" height="256" fill="white"/>
<path d="M128 24C107.431 24 87.3235 30.0995 70.2207 41.5272C53.118 52.9548 39.7881 69.1974 31.9166 88.2009C24.0451 107.204 21.9855 128.115 25.9984 148.289C30.0112 168.463 39.9163 186.994 54.4609 201.539C69.0056 216.084 87.5366 225.989 107.711 230.002C127.885 234.015 148.796 231.955 167.799 224.083C186.803 216.212 203.045 202.882 214.473 185.779C225.901 168.677 232 148.569 232 128C231.971 100.426 221.004 73.9905 201.507 54.4931C182.01 34.9956 155.574 24.0291 128 24ZM140 176C140 178.122 139.157 180.157 137.657 181.657C136.157 183.157 134.122 184 132 184C129.878 184 127.843 183.157 126.343 181.657C124.843 180.157 124 178.122 124 176V95L112.44 102.71C111.565 103.293 110.585 103.698 109.553 103.902C108.522 104.106 107.461 104.105 106.43 103.899C105.4 103.693 104.42 103.286 103.546 102.701C102.673 102.116 101.923 101.365 101.34 100.49C100.757 99.6154 100.352 98.6345 100.148 97.6034C99.9439 96.5722 99.945 95.511 100.151 94.4802C100.357 93.4495 100.764 92.4695 101.349 91.5961C101.934 90.7227 102.685 89.9731 103.56 89.39L127.56 73.39C128.762 72.5883 130.158 72.1269 131.6 72.0547C133.043 71.9825 134.478 72.3023 135.754 72.9801C137.03 73.6579 138.098 74.6684 138.845 75.9043C139.593 77.1403 139.992 78.5556 140 80V176Z" fill="#FF6900"/>
</g>
<defs>
<clipPath id="clip0_230_1773">
<rect width="256" height="256" fill="white"/>
</clipPath>
</defs>
</svg>
